<?xml version="1.0" encoding="utf-8"?>
<!-- Generator: Adobe Illustrator 22.1.0, SVG Export Plug-In . SVG Version: 6.00 Build 0)  -->
<svg version="1.1" id="Layer_1" focusable="false" xmlns="http://www.w3.org/2000/svg" xmlns:xlink="http://www.w3.org/1999/xlink"
	 x="0px" y="0px" viewBox="0 0 576 512" style="enable-background:new 0 0 576 512;" xml:space="preserve">
<style type="text/css">
	.st0{fill:url(#SVGID_1_);stroke:#4E5A65;stroke-width:14;stroke-miterlimit:10;}
	.st1{opacity:0.4;fill:#0000FF;enable-background:new    ;}
	.st2{fill:#FFA500;}
</style>
<radialGradient id="SVGID_1_" cx="281" cy="251" r="225" gradientUnits="userSpaceOnUse">
	<stop  offset="0" style="stop-color:#FFFFFF"/>
	<stop  offset="0.4628" style="stop-color:#FDFDFD"/>
	<stop  offset="0.6295" style="stop-color:#F6F6F6"/>
	<stop  offset="0.7483" style="stop-color:#EBEBEB"/>
	<stop  offset="0.8444" style="stop-color:#DADADA"/>
	<stop  offset="0.9257" style="stop-color:#C4C4C4"/>
	<stop  offset="0.9973" style="stop-color:#A9A9A9"/>
	<stop  offset="1" style="stop-color:#A8A8A8"/>
</radialGradient>
<circle class="st0" cx="281" cy="251" r="225"/>
<g>
	<path class="st1" d="M220.7,186.2c-23,0-41.7,18.7-41.7,41.7s18.7,41.7,41.7,41.7s41.7-18.7,41.7-41.7S243.7,186.2,220.7,186.2z
		 M337.3,186.2c-23,0-41.7,18.7-41.7,41.7s18.7,41.7,41.7,41.7c23,0,41.7-18.7,41.7-41.7S360.3,186.2,337.3,186.2z"/>
	<path class="st2" d="M170.7,282c-23,0-41.7,18.7-41.7,41.7c0,23,18.7,41.7,41.7,41.7s41.7-18.7,41.7-41.7
		C212.3,300.7,193.7,282,170.7,282z M279,98.7c-23,0-41.7,18.7-41.7,41.7S256,182,279,182s41.7-18.7,41.7-41.7S302,98.7,279,98.7z
		 M279,282c-23,0-41.7,18.7-41.7,41.7c0,23,18.7,41.7,41.7,41.7s41.7-18.7,41.7-41.7C320.7,300.7,302,282,279,282z M387.3,282
		c-23,0-41.7,18.7-41.7,41.7c0,23,18.7,41.7,41.7,41.7s41.7-18.7,41.7-41.7C429,300.7,410.3,282,387.3,282z"/>
</g>
</svg>
