<?xml version="1.0" encoding="utf-8"?>
<!-- Generator: Adobe Illustrator 22.1.0, SVG Export Plug-In . SVG Version: 6.00 Build 0)  -->
<svg version="1.1" id="Layer_1" focusable="false" xmlns="http://www.w3.org/2000/svg" xmlns:xlink="http://www.w3.org/1999/xlink"
	 x="0px" y="0px" viewBox="0 0 576 512" style="enable-background:new 0 0 576 512;" xml:space="preserve">
<style type="text/css">
	.st0{fill:url(#SVGID_1_);}
	.st1{fill:#4E5A65;}
</style>
<g>
	
		<radialGradient id="SVGID_1_" cx="281" cy="643" r="225" gradientTransform="matrix(1 0 0 -1 0 894)" gradientUnits="userSpaceOnUse">
		<stop  offset="0" style="stop-color:#FFFFFF"/>
		<stop  offset="0.4628" style="stop-color:#FDFDFD"/>
		<stop  offset="0.6295" style="stop-color:#F6F6F6"/>
		<stop  offset="0.7483" style="stop-color:#EBEBEB"/>
		<stop  offset="0.8444" style="stop-color:#DADADA"/>
		<stop  offset="0.9257" style="stop-color:#C4C4C4"/>
		<stop  offset="0.9973" style="stop-color:#A9A9A9"/>
		<stop  offset="1" style="stop-color:#A8A8A8"/>
	</radialGradient>
	<circle class="st0" cx="281" cy="251" r="225"/>
	<path class="st1" d="M281,483c-62,0-120.2-24.1-164-68S49,313,49,251s24.1-120.2,68-164s102-68,164-68s120.2,24.1,164,68
		s68,102.1,68,164c0,62-24.1,120.2-68,164S343,483,281,483z M281,33c-58.2,0-113,22.7-154.1,63.9S63,192.8,63,251
		s22.7,113,63.9,154.1S222.8,469,281,469s113-22.7,154.1-63.9S499,309.2,499,251s-22.7-113-63.9-154.1S339.2,33,281,33z"/>
</g>
<path d="M363.5,204h-64.9l24-73c2.2-8.5-4.2-17-13-17h-81c-6.7,0-12.5,5-13.4,11.7l-18,135c-1.1,8.1,5.2,15.3,13.4,15.3h66.8
	l-25.9,109.4c-2,8.5,4.5,16.6,13.1,16.6c4.7,0,9.2-2.5,11.7-6.7l99-171C380.4,215.3,373.9,204,363.5,204z"/>
</svg>