<?xml version="1.0" encoding="utf-8"?>
<!-- Generator: Adobe Illustrator 22.1.0, SVG Export Plug-In . SVG Version: 6.00 Build 0)  -->
<svg version="1.1" id="Layer_1" focusable="false" xmlns="http://www.w3.org/2000/svg" xmlns:xlink="http://www.w3.org/1999/xlink"
	 x="0px" y="0px" viewBox="0 0 576 512" style="enable-background:new 0 0 576 512;" xml:space="preserve">
<style type="text/css">
	.st0{fill:url(#SVGID_1_);stroke:#4E5A65;stroke-width:14;stroke-miterlimit:10;}
	.st1{opacity:0.4;fill:#FF0000;enable-background:new    ;}
	.st2{fill:#FF0000;}
</style>
<radialGradient id="SVGID_1_" cx="281" cy="251" r="225" gradientUnits="userSpaceOnUse">
	<stop  offset="0" style="stop-color:#FFFFFF"/>
	<stop  offset="0.4628" style="stop-color:#FDFDFD"/>
	<stop  offset="0.6295" style="stop-color:#F6F6F6"/>
	<stop  offset="0.7483" style="stop-color:#EBEBEB"/>
	<stop  offset="0.8444" style="stop-color:#DADADA"/>
	<stop  offset="0.9257" style="stop-color:#C4C4C4"/>
	<stop  offset="0.9973" style="stop-color:#A9A9A9"/>
	<stop  offset="1" style="stop-color:#A8A8A8"/>
</radialGradient>
<circle class="st0" cx="281" cy="251" r="225"/>
<g>
	<path class="st1" d="M325.6,198.4v-17.9c0-4.9-4-8.9-8.9-8.9h-19.4l32-32c3.3-3.3,5.2-7.9,5.2-12.6V118c0-9.9-8-17.9-17.9-17.9h-58
		c-4.9,0-8.9,4-8.9,8.9v17.9c0,4.9,4,8.9,8.9,8.9h23.9l-32,32c-3.3,3.3-5.2,7.9-5.2,12.6v8.9c0,9.9,8,17.9,17.9,17.9h53.6
		C321.6,207.3,325.6,203.3,325.6,198.4z M406,251.9V243c0-9.9-8-17.9-17.9-17.9h-53.6c-4.9,0-8.9,4-8.9,8.9v17.9
		c0,4.9,4,8.9,8.9,8.9H354l-32,32c-3.3,3.3-5.2,7.9-5.2,12.6v8.9c0,9.9,8,17.9,17.9,17.9h58c4.9,0,8.9-4,8.9-8.9v-17.9
		c0-4.9-4-8.9-8.9-8.9h-23.9l32-32C404.1,261.2,406,256.7,406,251.9z"/>
	<path class="st2" d="M263.1,225.1h-84.8c-7.4,0-13.4,6-13.4,13.4v26.8c0,7.4,6,13.4,13.4,13.4h28.1l-46,51.7
		c-2.9,3.3-4.5,7.5-4.5,11.9V368c0,9.9,8,17.9,17.9,17.9h84.8c7.4,0,13.4-6,13.4-13.4v-26.8c0-7.4-6-13.4-13.4-13.4h-28.1l46-51.7
		c2.9-3.3,4.5-7.5,4.5-11.9V243C281,233.1,273,225.1,263.1,225.1z"/>
</g>
</svg>